<svg data-v-0dd9719b="" version="1.0" xmlns="http://www.w3.org/2000/svg" xmlns:xlink="http://www.w3.org/1999/xlink" width="100%" height="100%" viewBox="0 0 340.000000 250.000000" preserveAspectRatio="xMidYMid meet" color-interpolation-filters="sRGB" style="margin: auto;"> <rect data-v-0dd9719b="" x="0" y="0" width="100%" height="100%" fill="#FFFFFF" fill-opacity="0" class="background"></rect> <rect data-v-0dd9719b="" x="0" y="0" width="100%" height="100%" fill="url(#watermark)" fill-opacity="1" class="watermarklayer"></rect> <g data-v-0dd9719b="" fill="#A60000" class="iconblsvg-g iconsvg" transform="translate(40.118133544921875,89.11383056640625)"><g class="tp-name" transform="matrix(1,0,0,1,0,0)" opacity="1"><g data-gra="path-name" transform="translate(0, 11.293038818222325)"><g transform="scale(1.1499999999999997)"><path d="M6.72 1.9L6.72 1.9Q4.89 1.9 3.38 1.11L3.38 1.11Q1.44 0.14 1.44-1.44L1.44-1.44Q1.44-2.34 2.08-3.27L2.08-3.27Q2.8-4.31 3.59-4.31L3.59-4.31 7.44-4.31Q7.9-4.31 7.9-5.03L7.9-5.03Q7.9-5.39 7.31-5.86 6.72-6.32 5.86-6.93 4.99-7.54 3.95-8.34 2.91-9.13 2.05-10.13 1.19-11.14 0.59-12.36 0-13.58 0-15.09L0-15.09Q0-18.57 2.59-20.73L2.59-20.73Q5.03-22.74 8.62-22.74L8.62-22.74 10.31-22.74Q11.82-22.31 12.86-21.38L12.86-21.38Q14.12-20.23 14.12-18.93L14.12-18.93Q14.12-17.78 13.01-16.99L13.01-16.99Q12-16.28 10.78-16.28L10.78-16.28Q10.06-16.28 9.47-16.4 8.87-16.53 8.16-16.53L8.16-16.53Q7.44-16.53 7.08-16.29 6.72-16.06 6.72-15.34L6.72-15.34 6.72-14.62Q7.69-13.54 9.2-12.59 10.71-11.64 12.13-10.58 13.54-9.52 14.55-8.25 15.56-6.97 15.56-5.28L15.56-5.28Q15.56-2.05 12.68 0L12.68 0Q10.02 1.9 6.72 1.9ZM27.16 1.44L27.16 1.44Q25.9 1.44 25.1 0.5 24.29-0.43 24.29-1.69L24.29-1.69 24.29-6.47Q24.29-6.93 23.57-6.93L23.57-6.93Q22.99-6.93 22.67-5.75L22.67-5.75Q22.24-4.17 21.84-3.59L21.84-3.59Q21.09-2.41 19.51-2.41L19.51-2.41Q16.71-2.41 16.38-4.06L16.38-4.06 16.38-9.27Q16.38-14.62 17.46-17.5 18.54-20.37 20.69-20.37L20.69-20.37Q21.77-20.37 22.46-19.89 23.14-19.4 23.59-18.81 24.04-18.22 24.34-17.73 24.65-17.25 25.01-17.25L25.01-17.25Q25.62-18.11 26.05-20.16 26.48-22.2 26.91-22.92L26.91-22.92Q27.63-24.18 29.32-24.18L29.32-24.18Q30.43-24.18 31.33-23.75L31.33-23.75Q32.44-23.17 32.44-22.02L32.44-22.02 32.44-20.12Q32.44-17.75 32.05-15.56 31.65-13.37 31.47-11.03L31.47-11.03 31.29-8.87Q31.22-7.98 31.22-7.22L31.22-7.22 31.22-6.22Q31.22-5.53 31.17-4.46 31.11-3.38 30.93-2.32 30.75-1.26 30.31-0.41 29.86 0.43 29.1 0.93 28.35 1.44 27.16 1.44ZM45.27 0.72L45.27 0.72Q44.26 0.72 43.71 0.23 43.15-0.25 42.84-0.97 42.54-1.69 42.36-2.51 42.18-3.34 41.89-4.06 41.6-4.78 41.14-5.26 40.67-5.75 39.77-5.75L39.77-5.75Q39.05-5.75 38.66-5.41 38.26-5.07 38.01-4.56 37.76-4.06 37.58-3.47 37.4-2.87 37.13-2.37 36.86-1.87 36.43-1.53 36-1.19 35.21-1.19L35.21-1.19Q33.77-1.19 33.05-2.14 32.34-3.09 32.34-4.56L32.34-4.56Q32.34-8.05 32.73-11.32L32.73-11.32Q33.34-16.31 34.85-19.37L34.85-19.37Q36.72-23.25 40.02-23.25L40.02-23.25Q42.72-23.25 44.73-18.93L44.73-18.93Q46.28-15.49 47.21-9.95L47.21-9.95Q47.93-5.43 47.93-2.41L47.93-2.41Q47.93-1.29 47.12-0.29 46.31 0.72 45.27 0.72ZM53.82-0.25L53.82-0.25Q50.41-0.25 48.83-3.23L48.83-3.23Q47.57-5.53 47.57-9.09L47.57-9.09Q47.57-15.09 49.04-18.11L49.04-18.11Q50.16-20.37 52.13-20.37L52.13-20.37Q53.57-20.37 54.29-19.44 55.01-18.5 55.01-17.25L55.01-17.25Q55.01-15.7 54.54-13.47L54.54-13.47Q54.32-12.54 54.18-11.62 54.04-10.71 54.04-8.37L54.04-8.37Q54.04-8.16 54.75-8.16L54.75-8.16Q55.29-8.16 55.62-8.69L55.62-8.69Q56.08-9.45 56.69-11.64L56.69-11.64Q57.63-15.09 60.04-15.09L60.04-15.09Q61.22-15.09 61.9-14.66 62.59-14.23 62.96-13.6 63.34-12.97 63.49-12.22 63.63-11.46 63.74-10.83 63.84-10.2 64.01-9.77 64.17-9.34 64.6-9.34L64.6-9.34Q65.03-9.34 65.25-9.68 65.46-10.02 65.51-10.51 65.57-10.99 65.57-11.5L65.57-11.5 65.53-12.22Q65.53-13.29 65.43-14.21 65.32-15.13 65.32-16.06L65.32-16.06Q65.32-17.35 66.27-18.38 67.22-19.4 68.41-19.4L68.41-19.4Q70.17-19.4 70.99-17.5L70.99-17.5Q71.53-16.17 71.53-14.12L71.53-14.12Q71.53-9.59 69.88-5.86L69.88-5.86Q67.8-1.19 63.88-1.19L63.88-1.19Q62.91-1.19 61.42-1.9 59.93-2.62 59.07-2.62L59.07-2.62Q58.35-2.62 57.74-2.25 57.13-1.87 56.53-1.44 55.94-1.01 55.29-0.63 54.65-0.25 53.82-0.25ZM74.26 0.72L74.26 0.72Q72.25 0.72 71.86-1.69L71.86-1.69Q71.86-4.38 71.62-6.83 71.39-9.27 71.39-11.96L71.39-11.96Q71.39-14.34 71.62-16.53 71.86-18.72 71.86-21.09L71.86-21.09Q71.86-21.92 72.86-22.63L72.86-22.63Q73.76-23.25 74.73-23.25L74.73-23.25Q75.45-23.25 75.95-22.8 76.46-22.35 76.9-21.81 77.35-21.27 77.84-20.82 78.32-20.37 79.04-20.37L79.04-20.37Q79.8-20.37 81.09-20.96 82.38-21.56 83.14-21.56L83.14-21.56Q84.4-21.56 85.08-20.87 85.76-20.19 85.76-18.93L85.76-18.93Q85.76-16.92 82.53-15.09L82.53-15.09Q81.7-14.62 80.98-14.16L80.98-14.16Q79.29-13.04 79.29-11.96L79.29-11.96Q79.29-11.5 80.01-10.81L80.01-10.81Q80.26-10.53 84.57-8.37L84.57-8.37Q86.01-7.51 86.01-5.75L86.01-5.75Q86.01-4.49 85.31-3.56 84.61-2.62 83.35-2.62L83.35-2.62Q82.28-2.62 81.2-2.98 80.12-3.34 79.04-3.34L79.04-3.34Q78.47-3.34 78.11-3.05L78.11-3.05Q77.5-2.55 76.96-1.33L76.96-1.33Q76.02 0.72 74.26 0.72ZM93.27 2.16L93.27 2.16Q91.83 2.16 90.75 1.4 89.68 0.65 89.68-0.97L89.68-0.97Q89.68-1.87 90.11-2.39 90.54-2.91 91.17-3.23 91.8-3.56 92.55-3.77 93.31-3.99 93.93-4.28 94.56-4.56 94.99-5.01 95.43-5.46 95.43-6.22L95.43-6.22Q95.43-6.47 94.96-6.93L94.96-6.93Q90.79-6.93 88.42-8.87L88.42-8.87Q85.83-10.96 85.83-15.09L85.83-15.09Q85.83-17.53 86.84-19.83L86.84-19.83Q88.1-22.74 90.14-22.74L90.14-22.74Q91.4-22.74 92.21-21.93 93.02-21.13 93.02-19.87L93.02-19.87Q93.02-18.65 92.66-17.5 92.3-16.35 92.3-15.09L92.3-15.09Q92.3-13.9 93.27-13.9L93.27-13.9Q94.17-13.9 94.67-14.55 95.17-15.2 95.5-16.15 95.82-17.1 96.09-18.22 96.36-19.33 96.81-20.28 97.26-21.23 97.99-21.88 98.73-22.53 99.99-22.53L99.99-22.53Q102.93-22.53 102.93-17.6L102.93-17.6Q102.93-17.39 102.9-16.65 102.86-15.92 102.86-15.09L102.86-15.09Q102.86-11.17 102.25-7.98L102.25-7.98Q101.35-3.52 99.49-1.01L99.49-1.01Q97.11 2.16 93.27 2.16Z" transform="translate(0, 24.18000030517578)"></path></g></g> <g transform="translate(121.36949920654297, 0)"><g><g class="imagesvg"><g><rect fill="#A60000" fill-opacity="0" stroke-width="2" x="0" y="0" width="58.74674165461078" height="52.87212036127006" class="image-rect"></rect> <svg filter="url(#colors1274069242)" x="0" y="0" width="58.74674165461078" height="52.87212036127006" filtersec="colorsf4603915384" class="image-svg-svg primary" style="overflow: visible;"><svg xmlns="http://www.w3.org/2000/svg" xmlns:xlink="http://www.w3.org/1999/xlink" version="1.1" x="0px" y="0px" viewBox="0 1 20 18" xml:space="preserve"><g><path d="M20,11c0-1.3-0.9-2.4-2-2.8c-0.4-4-3.7-7.2-8-7.2C5.9,1,2.5,4.1,2,8.2C0.8,8.6,0,9.8,0,11c0,1.3,0.8,2.4,2,2.8V16   c0,1.7,1.3,3,3,3h10c1.7,0,3-1.3,3-3v-2.2C19.3,13.4,20,12.2,20,11z M10,3c3.1,0,5.5,2.2,5.9,5H4.1C4.6,5.2,7,3,10,3z M16,16   c0,0.6-0.4,1-1,1H5c-0.6,0-1-0.4-1-1v-2h12V16z M17,12H3c-0.6,0-1-0.4-1-1c0-0.5,0.4-1,1-1h14c0.6,0,1,0.4,1,1   C18,11.6,17.5,12,17,12z"></path><path d="M7,6c0,0.5,0.4,1,1,1c0.5,0,1-0.4,1-1c0-0.3-0.1-0.5-0.3-0.7C8.1,4.7,7,5.1,7,6z"></path><path d="M12.7,5.3C12.1,4.7,11,5.1,11,6c0,0.6,0.5,1,1,1c0.5,0,1-0.4,1-1C13,5.7,12.9,5.4,12.7,5.3z"></path></g></svg></svg> <defs><filter id="colors1274069242"><feColorMatrix type="matrix" values="0 0 0 0 0.99609375  0 0 0 0 0  0 0 0 0 0  0 0 0 1 0" class="icon-fecolormatrix"></feColorMatrix></filter> <filter id="colorsf4603915384"><feColorMatrix type="matrix" values="0 0 0 0 0.99609375  0 0 0 0 0.99609375  0 0 0 0 0.99609375  0 0 0 1 0" class="icon-fecolormatrix"></feColorMatrix></filter> <filter id="colorsb1589809050"><feColorMatrix type="matrix" values="0 0 0 0 0  0 0 0 0 0  0 0 0 0 0  0 0 0 1 0" class="icon-fecolormatrix"></feColorMatrix></filter></defs></g></g></g></g> <g data-gra="path-name-1" fill="#A60000" transform="translate(183.11624145507812, 11.293038818222325)"><g transform="scale(1.1499999999999997)"><path d="M6 0.72L6 0.72 4.06 0.72Q2.87 0.43 2.41-1.44L2.41-1.44Q2.41-2.69 2.16-6.47 1.9-10.24 1.9-11.5L1.9-11.5Q1.83-14.41 0.04-15.84L0.04-15.84Q-0.43-16.2-0.79-16.53L-0.79-16.53Q-1.69-17.28-1.69-18.22L-1.69-18.22Q-1.69-20.77 2.05-22.42L2.05-22.42Q5.03-23.71 7.9-23.71L7.9-23.71Q10.92-23.71 13.33-22.38L13.33-22.38Q16.28-20.73 16.28-17.96L16.28-17.96Q16.28-16.63 15.45-14.8 14.62-12.97 14.62-11.96L14.62-11.96Q14.62-11.07 15.22-9.7 15.81-8.34 15.81-7.44L15.81-7.44Q15.81-3.56 12.72-1.29L12.72-1.29Q9.95 0.72 6 0.72ZM9.09-5.5L9.09-5.5Q9.63-5.5 9.97-5.95 10.31-6.4 10.31-6.93L10.31-6.93Q10.31-8.16 9.34-8.16L9.34-8.16Q8.8-8.16 8.48-7.71 8.16-7.26 8.16-6.72L8.16-6.72Q8.16-5.5 9.09-5.5ZM8.62-15.09L8.62-15.09Q9.16-15.09 9.49-15.63 9.81-16.17 9.81-16.53L9.81-16.53Q9.81-16.89 9.4-17.19 8.98-17.5 8.62-17.5L8.62-17.5Q7.65-17.5 7.65-16.28L7.65-16.28Q7.65-15.09 8.62-15.09ZM19.58 0.25L19.58 0.25Q17.53 0.25 16.71-1.69L16.71-1.69 16.71-4.31Q16.71-7.01 16.76-9.83 16.81-12.65 17.21-15.34L17.21-15.34Q17.28-15.77 17.89-17.03L17.89-17.03Q18.4-18.11 18.4-18.83L18.4-18.83Q18.4-19.08 18.16-19.78 17.93-20.48 17.93-20.59L17.93-20.59Q17.93-21.63 18.81-22.31 19.69-22.99 20.8-22.99L20.8-22.99Q21.63-22.99 22.29-22.44 22.96-21.88 22.96-20.84L22.96-20.84Q22.96-20.3 22.6-19.72 22.24-19.15 22.24-18.43L22.24-18.43Q22.24-17.71 22.6-17.16 22.96-16.6 22.96-16.06L22.96-16.06 22.96-3.84Q22.96-2.12 22.1-1.01L22.1-1.01Q21.13 0.25 19.58 0.25ZM28.06 0.25L28.06 0.25Q26.44 0.25 25.72-0.86L25.72-0.86Q25.19-1.69 25.19-3.59L25.19-3.59Q25.19-4.99 25.8-8.66 26.41-12.32 26.41-13.9L26.41-13.9Q26.41-14.62 25.99-15.13 25.58-15.63 25.08-16.11 24.57-16.6 24.16-17.19 23.75-17.78 23.75-18.68L23.75-18.68Q23.75-19.76 24.29-20.57 24.83-21.38 25.9-21.56L25.9-21.56Q31.94-21.56 35.25-21.31L35.25-21.31Q36.36-21.31 36.86-20.19L36.86-20.19Q37.19-19.4 37.19-18.22L37.19-18.22Q37.19-17.03 36.65-16.44 36.11-15.84 35.41-15.4 34.71-14.95 34.04-14.43 33.38-13.9 33.09-12.93L33.09-12.93Q32.87-11.21 31.76-5.25L31.76-5.25Q31.51-3.88 31.44-3.34L31.44-3.34Q31.26-1.9 30.4-0.83 29.53 0.25 28.06 0.25ZM44.84 0.25L44.84 0.25Q41.71 0.25 39.61-1.8 37.51-3.84 37.15-6.93L37.15-6.93 37.15-10.31Q37.15-17.17 38.98-20.19L38.98-20.19Q40.38-22.53 42.9-22.53L42.9-22.53Q45.84-22.53 47.14-22.1L47.14-22.1Q49.37-21.34 49.37-19.15L49.37-19.15Q49.37-16.6 46.85-16.13L46.85-16.13 45.66-15.88Q44.34-15.56 44.34-14.84L44.34-14.84Q44.34-14.48 44.86-14.3 45.38-14.12 46.02-13.87 46.67-13.62 47.19-13.2 47.71-12.79 47.71-11.96L47.71-11.96Q47.71-11.25 47.41-10.78 47.1-10.31 46.65-10.01 46.2-9.7 45.66-9.47 45.13-9.23 44.68-9 44.23-8.77 43.92-8.44 43.62-8.12 43.62-7.65L43.62-7.65Q43.62-7.11 43.99-6.75 44.37-6.4 44.93-6.09 45.49-5.78 46.13-5.48 46.78-5.17 47.34-4.78 47.89-4.38 48.27-3.81 48.65-3.23 48.65-2.41L48.65-2.41Q48.65-0.97 47.39-0.29L47.39-0.29Q46.42 0.25 44.84 0.25ZM56.12 1.9L56.12 1.9Q54.29 1.9 52.78 1.11L52.78 1.11Q50.84 0.14 50.84-1.44L50.84-1.44Q50.84-2.34 51.49-3.27L51.49-3.27Q52.2-4.31 52.99-4.31L52.99-4.31 56.84-4.31Q57.31-4.31 57.31-5.03L57.31-5.03Q57.31-5.39 56.71-5.86 56.12-6.32 55.26-6.93 54.4-7.54 53.35-8.34 52.31-9.13 51.45-10.13 50.59-11.14 49.99-12.36 49.4-13.58 49.4-15.09L49.4-15.09Q49.4-18.57 51.99-20.73L51.99-20.73Q54.43-22.74 58.02-22.74L58.02-22.74 59.71-22.74Q61.22-22.31 62.26-21.38L62.26-21.38Q63.52-20.23 63.52-18.93L63.52-18.93Q63.52-17.78 62.41-16.99L62.41-16.99Q61.4-16.28 60.18-16.28L60.18-16.28Q59.46-16.28 58.87-16.4 58.28-16.53 57.56-16.53L57.56-16.53Q56.84-16.53 56.48-16.29 56.12-16.06 56.12-15.34L56.12-15.34 56.12-14.62Q57.09-13.54 58.6-12.59 60.11-11.64 61.53-10.58 62.95-9.52 63.95-8.25 64.96-6.97 64.96-5.28L64.96-5.28Q64.96-2.05 62.08 0L62.08 0Q59.43 1.9 56.12 1.9Z" transform="translate(1.690000057220459, 24.18000030517578)"></path></g></g></g> <g data-gra="path-slogan" fill-rule="evenodd" class="tp-slogan iconsvg-slogansvg" fill="#FF0000" transform="matrix(1,0,0,1,39.676490783691406,59.87211990356445)" opacity="1"><!----> <!----> <g transform="scale(1, 1)"><g transform="scale(1)"><path d="M 1 8 L 0 0.2 L 1 0.2 L 1.5 4.5 A 51.1 51.1 0 0 0 1.6 5.8 A 51.1 51.1 0 0 1 1.7 7 L 1.8 7 Q 1.9 6.4 2.1 5.8 Q 2.3 5.2 2.5 4.6 L 3.9 0.5 L 4.8 0.6 L 5.5 4.8 A 307 307 0 0 1 5.7 6.1 A 324 324 0 0 1 5.9 7.4 L 5.9 7.4 A 275.2 275.2 0 0 1 6.3 6.1 A 75.7 75.7 0 0 1 6.6 4.9 L 7.7 0.8 L 8.7 0.9 L 6.4 8.5 L 5.3 8.4 L 4.5 3.6 A 30.1 30.1 0 0 1 4.4 2.7 A 185.6 185.6 0 0 0 4.3 1.8 L 4.2 1.8 Q 4.1 2.3 3.9 2.7 A 42.3 42.3 0 0 0 3.7 3.6 L 2.2 8.1 L 1 8 Z M 155.3 9.8 L 154.7 2 L 155.9 2 L 157.7 6 L 158.3 7.5 L 158.4 7.5 L 158.8 5.9 L 160 1.7 L 161.2 1.6 L 161.7 9.3 L 160.8 9.4 L 160.5 5.1 A 17.5 17.5 0 0 1 160.4 4 Q 160.4 3.4 160.5 2.9 L 160.4 2.9 L 159.9 4.6 L 158.7 8.7 L 158.1 8.8 L 156.4 4.8 L 155.6 3.2 L 155.6 3.2 Q 155.7 3.7 155.8 4.3 A 15.3 15.3 0 0 1 155.9 5.4 L 156.2 9.7 L 155.3 9.8 Z M 9.5 8.7 L 10.1 1 L 11.1 1.1 L 10.8 4.3 L 14.4 4.6 L 14.7 1.3 L 15.6 1.4 L 15.1 9.1 L 14.1 9 L 14.3 5.4 L 10.8 5.1 L 10.5 8.8 L 9.5 8.7 Z M 124.4 11.2 L 124.1 3.5 L 125.1 3.5 L 125.2 7.3 L 125.3 7.3 L 128.3 3.4 L 129.5 3.3 L 127.1 6.3 L 130.1 11 L 129 11.1 L 126.6 7.1 L 125.3 8.8 L 125.4 11.2 L 124.4 11.2 Z M 172.9 8.5 L 172.2 0.8 L 176.7 0.4 L 176.7 1.2 L 173.3 1.5 L 173.5 3.9 L 176.4 3.7 L 176.5 4.5 L 173.5 4.8 L 173.8 7.6 L 177.4 7.3 L 177.4 8.1 L 172.9 8.5 Z M 51.7 11.1 L 52 3.4 L 56.4 3.5 L 56.4 4.4 L 52.9 4.2 L 52.8 6.7 L 55.8 6.8 L 55.7 7.6 L 52.8 7.5 L 52.7 10.3 L 56.3 10.4 L 56.3 11.3 L 51.7 11.1 Z M 30.5 10.1 L 30.9 2.4 L 35.4 2.6 L 35.4 3.5 L 31.9 3.3 L 31.7 5.7 L 34.7 5.9 L 34.6 6.7 L 31.7 6.5 L 31.5 9.3 L 35.1 9.5 L 35.1 10.4 L 30.5 10.1 Z M 39.2 10.6 L 39.6 2.8 L 44.1 3.1 L 44 3.9 L 40.5 3.7 L 40.4 6.1 L 43.4 6.3 L 43.3 7.1 L 40.4 7 L 40.3 9.8 L 43.8 10 L 43.8 10.8 L 39.2 10.6 Z M 89.5 11.8 L 89.5 4.1 L 94 4.1 L 94 4.9 L 90.5 4.9 L 90.5 7.3 L 93.4 7.3 L 93.4 8.2 L 90.5 8.2 L 90.5 11 L 94.1 11 L 94.1 11.8 L 89.5 11.8 Z M 17.3 9.3 L 17.8 1.6 L 22.3 1.9 L 22.2 2.7 L 18.7 2.4 L 18.6 4.9 L 21.5 5.1 L 21.4 5.9 L 18.5 5.7 L 18.3 8.5 L 21.9 8.7 L 21.9 9.6 L 17.3 9.3 Z M 148.2 9.2 L 148.8 8.5 A 3.2 3.2 0 0 0 149.8 9.1 A 2.7 2.7 0 0 0 151 9.3 A 1.8 1.8 0 0 0 152.1 8.9 A 1.1 1.1 0 0 0 152.5 7.9 A 1.1 1.1 0 0 0 152.4 7.4 Q 152.3 7.2 152.1 7.1 Q 151.9 7 151.7 6.9 A 32.3 32.3 0 0 0 151.1 6.6 L 150 6.2 Q 149.7 6.1 149.4 6 A 2.3 2.3 0 0 1 148.9 5.6 A 1.9 1.9 0 0 1 148.5 5.1 A 1.9 1.9 0 0 1 148.3 4.3 A 1.8 1.8 0 0 1 148.5 3.5 A 2 2 0 0 1 148.9 2.8 A 2.4 2.4 0 0 1 149.7 2.3 A 3 3 0 0 1 150.6 2.1 A 3.1 3.1 0 0 1 151.9 2.3 A 3.2 3.2 0 0 1 153 3 L 152.5 3.6 A 2.8 2.8 0 0 0 151.7 3.1 Q 151.2 3 150.7 3 A 1.7 1.7 0 0 0 149.7 3.4 A 1 1 0 0 0 149.3 4.2 A 0.9 0.9 0 0 0 149.5 4.7 A 1.2 1.2 0 0 0 149.8 5 A 2.4 2.4 0 0 0 150.2 5.2 A 6.1 6.1 0 0 0 150.7 5.4 L 151.8 5.8 A 4.7 4.7 0 0 1 152.4 6.1 A 2.2 2.2 0 0 1 153 6.5 A 1.8 1.8 0 0 1 153.3 7.1 A 2.1 2.1 0 0 1 153.5 7.8 A 2.1 2.1 0 0 1 153.4 8.7 A 2.1 2.1 0 0 1 152.9 9.4 Q 152.6 9.7 152.1 9.9 A 3.3 3.3 0 0 1 151 10.2 A 3.7 3.7 0 0 1 149.5 9.9 A 3.7 3.7 0 0 1 148.2 9.2 Z M 130.5 10 L 131.1 9.3 A 3.2 3.2 0 0 0 132.1 10 A 2.7 2.7 0 0 0 133.3 10.2 Q 134 10.2 134.4 9.8 A 1.1 1.1 0 0 0 134.8 8.9 A 1.1 1.1 0 0 0 134.7 8.4 A 1.1 1.1 0 0 0 134.4 8 A 2 2 0 0 0 134 7.8 A 32.3 32.3 0 0 0 133.5 7.5 L 132.4 7.1 A 5.3 5.3 0 0 1 131.8 6.8 A 2.3 2.3 0 0 1 131.3 6.5 Q 131 6.2 130.9 5.9 A 1.9 1.9 0 0 1 130.7 5.2 Q 130.7 4.7 130.9 4.4 A 2 2 0 0 1 131.3 3.7 A 2.4 2.4 0 0 1 132.1 3.2 A 3 3 0 0 1 133.1 3 A 3.1 3.1 0 0 1 134.3 3.2 A 3.2 3.2 0 0 1 135.4 3.9 L 134.9 4.5 A 2.8 2.8 0 0 0 134.1 4 A 2.3 2.3 0 0 0 133.1 3.9 A 1.7 1.7 0 0 0 132.1 4.2 A 1 1 0 0 0 131.7 5.1 Q 131.7 5.4 131.8 5.6 A 1.2 1.2 0 0 0 132.1 5.9 A 2.4 2.4 0 0 0 132.6 6.1 Q 132.8 6.2 133 6.3 L 134.1 6.7 A 4.7 4.7 0 0 1 134.8 7 A 2.2 2.2 0 0 1 135.3 7.4 A 1.8 1.8 0 0 1 135.7 8 A 2.1 2.1 0 0 1 135.8 8.7 A 2.1 2.1 0 0 1 135.7 9.6 A 2.1 2.1 0 0 1 135.2 10.3 A 2.5 2.5 0 0 1 134.4 10.8 A 3.3 3.3 0 0 1 133.3 11 A 3.7 3.7 0 0 1 131.8 10.8 A 3.7 3.7 0 0 1 130.5 10 Z M 97.7 10.8 L 98.2 10.1 A 3.2 3.2 0 0 0 99.2 10.8 A 2.7 2.7 0 0 0 100.4 11 Q 101.1 11 101.6 10.7 A 1.1 1.1 0 0 0 102 9.8 A 1.1 1.1 0 0 0 101.9 9.3 A 1.1 1.1 0 0 0 101.6 8.9 Q 101.4 8.8 101.2 8.6 A 32.3 32.3 0 0 0 100.7 8.4 L 99.6 7.9 A 5.3 5.3 0 0 1 99 7.7 Q 98.7 7.5 98.5 7.3 Q 98.3 7 98.1 6.7 A 1.9 1.9 0 0 1 98 6 Q 98 5.5 98.2 5.1 A 2 2 0 0 1 98.7 4.5 A 2.4 2.4 0 0 1 99.4 4 A 3 3 0 0 1 100.4 3.9 A 3.1 3.1 0 0 1 101.7 4.1 A 3.2 3.2 0 0 1 102.7 4.8 L 102.2 5.5 Q 101.8 5.1 101.4 4.9 Q 100.9 4.7 100.4 4.7 A 1.7 1.7 0 0 0 99.4 5 A 1 1 0 0 0 99 5.9 A 0.9 0.9 0 0 0 99.1 6.4 A 1.2 1.2 0 0 0 99.4 6.7 A 2.4 2.4 0 0 0 99.8 7 A 6.1 6.1 0 0 0 100.3 7.2 L 101.4 7.6 A 4.7 4.7 0 0 1 102 7.9 A 2.2 2.2 0 0 1 102.5 8.4 Q 102.7 8.6 102.9 8.9 A 2.1 2.1 0 0 1 103 9.7 Q 103 10.1 102.8 10.5 A 2.1 2.1 0 0 1 102.3 11.2 A 2.5 2.5 0 0 1 101.5 11.7 A 3.3 3.3 0 0 1 100.4 11.9 A 3.7 3.7 0 0 1 98.9 11.6 A 3.7 3.7 0 0 1 97.7 10.8 Z M 47 10.9 L 44.8 3.1 L 45.8 3.1 L 46.9 7.4 A 41.5 41.5 0 0 1 47.2 8.7 A 25.3 25.3 0 0 0 47.6 9.9 L 47.6 9.9 A 47.8 47.8 0 0 0 48 8.7 A 178.5 178.5 0 0 1 48.5 7.4 L 49.9 3.3 L 50.9 3.3 L 48.1 11 L 47 10.9 Z M 28.9 10 L 27.8 10 L 26.2 6.6 L 24.8 6.5 L 24.6 9.8 L 23.6 9.7 L 24.1 2 L 26.5 2.1 A 5 5 0 0 1 27.6 2.3 Q 28.1 2.4 28.4 2.7 A 1.8 1.8 0 0 1 28.9 3.4 Q 29.1 3.9 29 4.5 A 2.1 2.1 0 0 1 28.5 5.9 Q 28 6.4 27.2 6.5 L 28.9 10 Z M 63.4 11.5 L 62.3 11.4 L 60.5 8.1 L 59.1 8.1 L 59 11.3 L 58 11.3 L 58.2 3.6 L 60.6 3.7 A 5 5 0 0 1 61.7 3.8 A 2.3 2.3 0 0 1 62.6 4.2 A 1.8 1.8 0 0 1 63.1 4.9 A 2.3 2.3 0 0 1 63.3 5.9 Q 63.3 6.8 62.8 7.3 A 2.4 2.4 0 0 1 61.5 8 L 63.4 11.5 Z M 122.8 11.3 L 121.7 11.3 L 119.7 8.1 L 118.3 8.2 L 118.4 11.4 L 117.4 11.4 L 117.2 3.7 L 119.6 3.6 A 5 5 0 0 1 120.7 3.7 A 2.3 2.3 0 0 1 121.6 4.1 A 1.8 1.8 0 0 1 122.2 4.7 Q 122.4 5.1 122.4 5.7 Q 122.4 6.6 122 7.2 A 2.4 2.4 0 0 1 120.7 8 L 122.8 11.3 Z M 66 11.5 L 66.1 8.5 L 63.9 3.7 L 64.9 3.8 L 65.9 6 A 68.5 68.5 0 0 1 66.2 6.8 A 36 36 0 0 0 66.6 7.7 L 66.6 7.7 A 43.8 43.8 0 0 1 67.1 6.8 A 16 16 0 0 0 67.5 6 L 68.5 3.9 L 69.5 3.9 L 67.1 8.6 L 67 11.6 L 66 11.5 Z M 115.2 11.5 L 114.4 9.2 L 111.6 9.2 L 110.9 11.6 L 109.9 11.6 L 112.3 3.8 L 113.4 3.8 L 116.2 11.5 L 115.2 11.5 Z M 144.2 10.4 L 143.4 8.1 L 140.5 8.2 L 139.9 10.6 L 138.9 10.7 L 141.1 2.8 L 142.3 2.7 L 145.3 10.3 L 144.2 10.4 Z M 84.7 11.8 L 84.7 4.9 L 82.4 4.9 L 82.4 4 L 88.1 4.1 L 88 4.9 L 85.7 4.9 L 85.7 11.8 L 84.7 11.8 Z M 72.9 11.7 L 73 3.9 L 75.3 4 A 5.1 5.1 0 0 1 76.4 4.1 A 2.5 2.5 0 0 1 77.2 4.4 A 1.6 1.6 0 0 1 77.8 5 A 1.8 1.8 0 0 1 77.9 5.9 A 1.8 1.8 0 0 1 77.6 6.9 A 1.7 1.7 0 0 1 76.6 7.6 L 76.6 7.6 A 2.3 2.3 0 0 1 77.9 8.2 A 1.7 1.7 0 0 1 78.3 9.5 A 2.2 2.2 0 0 1 78.1 10.5 Q 77.9 10.9 77.5 11.2 A 2.7 2.7 0 0 1 76.6 11.6 A 4.7 4.7 0 0 1 75.4 11.7 L 72.9 11.7 Z M 167.1 8.9 L 166.5 1.2 L 167.5 1.2 L 168 8 L 171.4 7.8 L 171.4 8.6 L 167.1 8.9 Z M 104.6 11.7 L 104.5 4 L 106.9 3.9 A 5.4 5.4 0 0 1 108 4 A 2.4 2.4 0 0 1 109 4.4 A 1.8 1.8 0 0 1 109.5 5.1 A 2.5 2.5 0 0 1 109.8 6.2 A 2.5 2.5 0 0 1 109.6 7.2 A 2 2 0 0 1 109 8 A 2.6 2.6 0 0 1 108.1 8.4 Q 107.6 8.6 107 8.6 L 105.6 8.6 L 105.6 11.7 L 104.6 11.7 Z M 79.9 11.8 L 80 4 L 81 4 L 80.9 11.8 L 79.9 11.8 Z M 163.9 9.2 L 163.3 1.5 L 164.3 1.4 L 164.9 9.1 L 163.9 9.2 Z M 179.2 5.6 L 178.7 1.2 L 178.6 0.1 L 179.6 0 L 179.6 1.1 L 179.9 5.6 L 179.2 5.6 Z M 73.9 10.9 L 75.2 10.9 A 2.8 2.8 0 0 0 76.8 10.6 Q 77.4 10.2 77.4 9.4 A 1.2 1.2 0 0 0 76.8 8.4 A 3 3 0 0 0 75.3 8 L 73.9 8 L 73.9 10.9 Z M 105.5 7.8 L 106.8 7.8 A 2.4 2.4 0 0 0 108.3 7.4 Q 108.8 7 108.8 6.2 Q 108.8 5.3 108.3 5 Q 107.8 4.7 106.8 4.7 L 105.5 4.7 L 105.5 7.8 Z M 118.2 4.5 L 118.3 7.4 L 119.6 7.3 Q 120.5 7.3 121 6.9 A 1.3 1.3 0 0 0 121.4 5.8 A 1.2 1.2 0 0 0 120.9 4.7 Q 120.4 4.4 119.5 4.4 L 118.2 4.5 Z M 25 2.8 L 24.8 5.7 L 26.1 5.8 A 2.2 2.2 0 0 0 27.5 5.5 A 1.3 1.3 0 0 0 28.1 4.4 Q 28.1 3.6 27.7 3.3 A 2.6 2.6 0 0 0 26.3 2.9 L 25 2.8 Z M 59.2 4.4 L 59.1 7.3 L 60.4 7.3 Q 61.3 7.3 61.8 7 Q 62.3 6.6 62.3 5.9 Q 62.3 5.1 61.9 4.8 Q 61.4 4.5 60.5 4.4 L 59.2 4.4 Z M 111.8 8.4 L 114.1 8.4 L 113.7 7.2 A 44 44 0 0 1 113.3 5.9 A 115 115 0 0 1 112.9 4.6 L 112.9 4.6 A 48.4 48.4 0 0 1 112.5 5.9 A 44 44 0 0 1 112.2 7.2 L 111.8 8.4 Z M 140.8 7.4 L 143.1 7.3 L 142.6 6.1 Q 142.4 5.5 142.2 4.9 A 115 115 0 0 1 141.7 3.6 L 141.7 3.6 Q 141.5 4.3 141.4 4.9 A 44 44 0 0 1 141.1 6.2 L 140.8 7.4 Z M 74 7.3 L 75.1 7.3 A 2.3 2.3 0 0 0 76.5 6.9 A 1.2 1.2 0 0 0 77 6 A 1 1 0 0 0 76.5 5 A 2.7 2.7 0 0 0 75.2 4.7 L 74 4.7 L 74 7.3 Z M 179.2 6.8 A 0.7 0.7 0 0 0 179 7.4 A 0.7 0.7 0 0 0 179.3 7.9 A 0.7 0.7 0 0 0 179.8 8.1 Q 180.1 8 180.3 7.8 A 0.7 0.7 0 0 0 180.4 7.3 A 0.7 0.7 0 0 0 180.2 6.7 A 0.7 0.7 0 0 0 179.7 6.6 A 0.7 0.7 0 0 0 179.2 6.8 Z"></path></g></g></g></g><defs v-gra="od"></defs></svg>